# xmcd CD database file
#
# Track frame offsets:
#	150
#	18387
#	37624
#	62595
#	83983
#	108047
#	124263
#	146057
#	168686
#	190874
#	210160
#	228696
#	249519
#	276758
#
# Disc length: 3973 seconds
#
# Revision: 0
# Processed by: cddbd v1.5.2PL0 Copyright (c) Steve Scherf et al.
# Submitted via: CDex 1.70beta2
#
DISCID=ba0f830e
DTITLE=Various Artist - BOSSA JAZZ NIGHTS vol2
DYEAR=2008
DGENRE=Jazz
TTITLE0=Sing A Lullaby - Pauline London
TTITLE1=Reflejo De Luna - C Alacran
TTITLE2=Contas Nova - C Panaphonic feat. Lilian Gimanez
TTITLE3=Samba Natural - C Bungalove
TTITLE4=Triste-Alegre - C L.E.D
TTITLE5=What A Difference A Day Makes - C Dynamic 4
TTITLE6=Espuma Bossa (Acoustic Mix) - C Panaphonic feat. Lilian Gimanez
TTITLE7=Sirenas - C Alacran
TTITLE8=Sunrise Light - C Panaphonic vs. Guanavana
TTITLE9=Evil Ways - C Cuban Jazz Combo
TTITLE10=Linda Cancao - C Barrio Jazz Gang
TTITLE11=Ait Benhaddou Chill - C Alacran
TTITLE12=La Sagra del Moscerino - C Aldo Bassi
TTITLE13=Espuma Bossa (Main Mix) - C Panaphonic feat. Lilian Gimanez
EXTD=YEAR: 2008
EXTT0=
EXTT1=
EXTT2=
EXTT3=
EXTT4=
EXTT5=
EXTT6=
EXTT7=
EXTT8=
EXTT9=
EXTT10=
EXTT11=
EXTT12=
EXTT13=
PLAYORDER=
